# xmcd
#
# Track frame offsets:
# 150
# 9759
# 19012
# 28073
# 41015
# 50381
# 59587
# 70683
# 81993
# 92956
# 106127
# 117743
#
# Disc length: 1711 seconds
#
#
# Revision: 0
# Processed by: cddbd v1.4PL0 Copyright (c) Steve Scherf et al.
# Submitted via: FreeRIP 2.00 
#
DISCID=9a06ad0c
DTITLE=Waylon Jennings - Leavin' Town
DYEAR=1966
DGENRE=Country
TTITLE0=Leavin' Town
TTITLE1=Time To Bum Again
TTITLE2=If You Really Want Me To, I'll Go
TTITLE3=Baby, Don't Be Looking In My Mind
TTITLE4=That's Alright
TTITLE5=Time Will Tell The Story
TTITLE6=You're Gonna Wonder About Me
TTITLE7=(That's What You Get) For Lovin' Me
TTITLE8=Anita, You're Dreaming
TTITLE9=Doesn't Anybody Know My Name
TTITLE10=Falling For You
TTITLE11=I Just Wonder Where I Went Wrong
EXTD=RCA Victor\nLSP 3620
EXTT0=
EXTT1=
EXTT2=
EXTT3=
EXTT4=
EXTT5=
EXTT6=
EXTT7=
EXTT8=
EXTT9=
EXTT10=
EXTT11=
PLAYORDER=
